<?xml version="1.0" encoding="UTF-8" standalone="no"?>
<svg
   xmlns:dc="http://purl.org/dc/elements/1.1/"
   xmlns:cc="http://creativecommons.org/ns#"
   xmlns:rdf="http://www.w3.org/1999/02/22-rdf-syntax-ns#"
   xmlns:svg="http://www.w3.org/2000/svg"
   xmlns="http://www.w3.org/2000/svg"
   xmlns:sodipodi="http://sodipodi.sourceforge.net/DTD/sodipodi-0.dtd"
   xmlns:inkscape="http://www.inkscape.org/namespaces/inkscape"
   enable-background="new 0 0 24 24"
   height="24px"
   id="Layer_1"
   version="1.1"
   viewBox="0 0 24 24"
   width="24px"
   xml:space="preserve"
   sodipodi:docname="email.svg"
   inkscape:version="0.92.2 (5c3e80d, 2017-08-06)"><metadata
     id="metadata9"><rdf:RDF><cc:Work
         rdf:about=""><dc:format>image/svg+xml</dc:format><dc:type
           rdf:resource="http://purl.org/dc/dcmitype/StillImage" /></cc:Work></rdf:RDF></metadata><defs
     id="defs7" /><sodipodi:namedview
     pagecolor="#ffffff"
     bordercolor="#666666"
     borderopacity="1"
     objecttolerance="10"
     gridtolerance="10"
     guidetolerance="10"
     inkscape:pageopacity="0"
     inkscape:pageshadow="2"
     inkscape:window-width="920"
     inkscape:window-height="480"
     id="namedview5"
     showgrid="false"
     inkscape:zoom="9.8333333"
     inkscape:cx="12"
     inkscape:cy="12"
     inkscape:window-x="1328"
     inkscape:window-y="726"
     inkscape:window-maximized="0"
     inkscape:current-layer="Layer_1" /><path
     d="m 20.542373,7.0393819 c 0,-0.4097707 -0.349576,-0.7512463 -0.769068,-0.7512463 H 4.5317797 c -0.4194916,0 -0.7690678,0.3414756 -0.7690678,0.7512463 V 17.147059 c 0,0.40977 0.3495762,0.751246 0.7690678,0.751246 H 19.773305 c 0.419492,0 0.769068,-0.341476 0.769068,-0.751246 z M 9.4957627,12.776171 11.59322,14.75673 c 0.279661,0.27318 0.838983,0.27318 1.118644,-0.0683 l 2.097458,-1.912264 3.705509,3.756232 H 5.7902543 Z M 5.161017,15.917747 V 8.3369892 L 9.006356,12.09322 Z M 15.298729,12.09322 19.144068,8.3369892 V 15.917747 Z M 19.144068,7.6540382 V 7.3808572 L 12.152542,14.142074 5.161017,7.3808572 v 0.273181 z"
     id="path2"
     inkscape:connector-curvature="0"
     style="stroke-width:0.69100434" /></svg>